<?xml version="1.0" encoding="UTF-8"?>
<svg id="acc-icon" xmlns="http://www.w3.org/2000/svg" xmlns:xlink="http://www.w3.org/1999/xlink" version="1.1" viewBox="0 0 37.6 37.6">
  <!-- Generator: Adobe Illustrator 29.3.1, SVG Export Plug-In . SVG Version: 2.1.0 Build 151)  -->
  <defs>
    <style>
      .st0 {
        fill: url(#linear-gradient);
      }

      .st1 {
        fill: none;
        stroke: #a6a099;
        stroke-miterlimit: 10;
        stroke-width: 1.3px;
      }
    </style>
    <linearGradient id="linear-gradient" x1="18.8" y1=".05" x2="18.8" y2="34.49" gradientUnits="userSpaceOnUse">
      <stop offset="0" stop-color="#fef4e9"/>
      <stop offset=".75" stop-color="#e3dad0"/>
      <stop offset=".99" stop-color="#fef4e9"/>
    </linearGradient>
  </defs>
  <rect id="gradient" class="st0" x="0" width="37.6" height="37.6"/>
  <g id="acc-linework">
    <rect class="st1" x="15.5" y="15.19" width="6.59" height="6.89" rx="2.78" ry="2.78"/>
    <path class="st1" d="M21.59,15.83c1.41-2.91,4.83-8.03,7.82-7.14,3.34,1,3.36,4.01,3.46,8.59.09,4.08.79,7.69-2.11,10.03-2.69,2.17-7.33-1.74-9.16-5.87"/>
    <path class="st1" d="M16.39,15.85"/>
    <path class="st1" d="M22.1,17.43c1.57-.96,3.89-2.18,5.75-2.21"/>
    <path class="st1" d="M22.1,19.56c1.75,1.35,5.51,3.53,7.2,1.95"/>
    <path class="st1" d="M16.01,15.84c-1.41-2.91-4.83-8.04-7.82-7.15-3.34,1-3.36,4.01-3.46,8.59-.09,4.08-.79,7.69,2.11,10.03,2.69,2.17,7.33-1.74,9.16-5.87"/>
    <path class="st1" d="M15.5,17.37c-1.33-.97-3.05-2.17-5.73-2.17"/>
    <path class="st1" d="M15.5,19.47c-1.41.86-4.15,1.85-6.58.93"/>
  </g>
</svg>