<?xml version="1.0" encoding="UTF-8"?>
<svg id="bottoms-icon" xmlns="http://www.w3.org/2000/svg" xmlns:xlink="http://www.w3.org/1999/xlink" version="1.1" viewBox="0 0 37.6 37.6">
  <!-- Generator: Adobe Illustrator 29.3.1, SVG Export Plug-In . SVG Version: 2.1.0 Build 151)  -->
  <defs>
    <style>
      .st0 {
        fill: none;
        stroke: #a6a099;
        stroke-linejoin: round;
        stroke-width: 1.3px;
      }

      .st1 {
        fill: url(#linear-gradient);
      }
    </style>
    <linearGradient id="linear-gradient" x1="18.8" y1=".05" x2="18.8" y2="34.49" gradientUnits="userSpaceOnUse">
      <stop offset="0" stop-color="#fef4e9"/>
      <stop offset=".75" stop-color="#e3dad0"/>
      <stop offset=".99" stop-color="#fef4e9"/>
    </linearGradient>
  </defs>
  <rect id="gradient" class="st1" x="0" width="37.6" height="37.6"/>
  <g id="bottoms-linework">
    <line class="st0" x1="18.8" y1="17.94" x2="18.8" y2="9.62"/>
    <path class="st0" d="M11.37,8.51c1.58.79,4.63,1.11,7.43,1.11"/>
    <path class="st0" d="M26.23,8.51c-1.58.79-4.63,1.11-7.43,1.11"/>
    <path class="st0" d="M9.6,12.77l2.91-.15c.91-.05,1.7-.63,2.01-1.49l.55-1.52"/>
    <path class="st0" d="M18.8,7.35c-1.73,0-5.29-.29-6.73-.83l-6.89,17.83s3.51,4.19,9.92,4.19l3.69-10.6"/>
    <path class="st0" d="M18.8,17.94"/>
    <path class="st0" d="M18.8,7.35c1.73,0,5.29-.29,6.73-.83l6.89,17.83s-3.51,4.19-9.92,4.19l-3.69-10.6"/>
    <path class="st0" d="M18.8,17.94"/>
    <path class="st0" d="M28,12.77l-2.91-.15c-.91-.05-1.7-.63-2.01-1.49l-.55-1.52"/>
  </g>
</svg>