<?xml version="1.0" encoding="UTF-8"?>
<svg id="full-body-icon" xmlns="http://www.w3.org/2000/svg" xmlns:xlink="http://www.w3.org/1999/xlink" version="1.1" viewBox="0 0 37.6 37.6">
  <!-- Generator: Adobe Illustrator 29.3.1, SVG Export Plug-In . SVG Version: 2.1.0 Build 151)  -->
  <defs>
    <style>
      .st0 {
        fill: none;
        stroke: #a6a099;
        stroke-linejoin: round;
        stroke-width: 1.3px;
      }

      .st1 {
        fill: url(#linear-gradient);
      }
    </style>
    <linearGradient id="linear-gradient" x1="18.8" y1=".05" x2="18.8" y2="34.49" gradientUnits="userSpaceOnUse">
      <stop offset="0" stop-color="#fef4e9"/>
      <stop offset=".75" stop-color="#e3dad0"/>
      <stop offset=".99" stop-color="#fef4e9"/>
    </linearGradient>
  </defs>
  <rect id="gradient" class="st1" x="0" width="37.6" height="37.6"/>
  <g id="full-body-linework">
    <path class="st0" d="M13.55,15.48c.7.55,3.09.82,5.25.82"/>
    <line class="st0" x1="15.79" y1="16.1" x2="13.35" y2="21.62"/>
    <line class="st0" x1="18.14" y1="16.31" x2="17.35" y2="26.37"/>
    <path class="st0" d="M18.8,10.68c-.58,0-3.33.06-3.33-3.36l-1.42-.26-.69,5.51.19,2.91-7.55,10.36s3.71,6.23,12.8,6.23"/>
    <path class="st0" d="M24.05,15.48c-.7.55-3.09.82-5.25.82"/>
    <path class="st0" d="M18.8,10.68c.58,0,3.33.06,3.33-3.36l1.42-.26.69,5.51-.19,2.91,7.55,10.36s-3.71,6.23-12.8,6.23"/>
    <line class="st0" x1="21.43" y1="16.1" x2="22.98" y2="19.58"/>
  </g>
</svg>