<?xml version="1.0" encoding="UTF-8"?>
<svg id="full-body-icon" xmlns="http://www.w3.org/2000/svg" xmlns:xlink="http://www.w3.org/1999/xlink" version="1.1" viewBox="0 0 37.6 37.6">
  <!-- Generator: Adobe Illustrator 29.3.1, SVG Export Plug-In . SVG Version: 2.1.0 Build 151)  -->
  <defs>
    <style>
      .st0 {
        fill: none;
        stroke: #a6a099;
        stroke-linejoin: round;
        stroke-width: 1.3px;
      }

      .st1 {
        fill: url(#linear-gradient);
      }
    </style>
    <linearGradient id="linear-gradient" x1="18.8" y1=".05" x2="18.8" y2="34.49" gradientUnits="userSpaceOnUse">
      <stop offset="0" stop-color="#fef4e9"/>
      <stop offset=".75" stop-color="#e3dad0"/>
      <stop offset=".99" stop-color="#fef4e9"/>
    </linearGradient>
  </defs>
  <rect id="gradient" class="st1" x="0" width="37.6" height="37.6"/>
  <g id="shoes-linework">
    <line class="st0" x1="6.51" y1="21.21" x2="32.14" y2="21.21"/>
    <path class="st0" d="M6.75,14.46c2.78.24,6.7,2.17,8.23,6.75"/>
    <path class="st0" d="M29.89,16.16c-1.51,1-2.37,2.62-2.77,5.05"/>
    <path class="st0" d="M19.58,13.59c.63-1.95,1.74-4.08,3.47-5.65"/>
    <path class="st0" d="M23.65,14.81c.22-1.77,1.21-3.85,3.03-4.95"/>
    <path class="st0" d="M6.51,9.36c2.72,1.99,6.64,1.94,10.42-.57,18.33,4.24,15.31,17.17,15.31,17.17H6.35l.17-16.61h0Z"/>
  </g>
</svg>