<?xml version="1.0" encoding="UTF-8"?>
<svg id="Layer_1" xmlns="http://www.w3.org/2000/svg" version="1.1" viewBox="0 0 198.11 63.7">
  <!-- Generator: Adobe Illustrator 29.3.1, SVG Export Plug-In . SVG Version: 2.1.0 Build 151)  -->
  <defs>
    <style>
      .st0 {
        fill: #e36e59;
      }

      .st1 {
        fill: #f9a7d5;
      }

      .st2 {
        fill: #f56c6c;
      }

      .st3 {
        fill: #fef4e9;
      }
    </style>
  </defs>
  <g>
    <g>
      <path d="M42.25,36.14l3.04-20.73c.3-2.04,1.57-2.98,3.61-2.68l5.19.76c10.9,1.6,14.27,7.09,13.01,15.74-1.24,8.47-6.08,12.88-16.97,11.28l-5.19-.76c-2.04-.3-2.98-1.57-2.68-3.61ZM59.46,28.04c.66-4.47-.34-7.08-6.07-7.92l-1.04-.15-2.02,13.77,1.1.16c5.67.83,7.37-1.35,8.03-5.86Z"/>
      <path d="M80.33,43.61c-5.36.49-9.29-3.24-9.93-10.24-.64-7.01,2.53-11.34,7.91-11.83,2.61-.24,5.45.83,6.64,3.01l-.04-.41c-.22-1.95.91-3,2.91-3.18l.97-.09c2.05-.19,3.27.82,3.45,2.88l1.38,15.12c.19,2.05-.83,3.27-2.88,3.46l-.97.09c-1.97.18-3.29-.61-3.43-2.49l-.02-.35c-.77,2.29-3.39,3.81-5.98,4.05h0ZM85.86,31.94c-.29-3.18-2.11-5.04-4.57-4.82-2.42.22-3.91,2.4-3.62,5.56.29,3.2,2.12,5.08,4.6,4.85,2.45-.22,3.89-2.39,3.6-5.6Z"/>
      <path d="M98.69,37.93l1.32-15.16c.18-2.05,1.38-3.07,3.43-2.89l1,.09c2.04.18,3.05,1.39,2.87,3.44l-1.32,15.16c-.18,2.05-1.38,3.07-3.43,2.89l-1-.09c-2.04-.18-3.05-1.39-2.87-3.44ZM100.41,13.65c.2-2.33,2.01-3.4,4.39-3.19,2.17.19,3.97,1.57,3.77,3.9-.21,2.36-2.22,3.38-4.39,3.19-2.38-.21-3.98-1.54-3.77-3.9Z"/>
      <path d="M112.75,37.17c-1.74-1.44-1.91-3.51.74-4.14l.78-.19c1.5-.35,2.26.15,3.56,1.1,1.06.77,2.32,1.02,3.48.93,1.62-.12,2.6-.88,2.52-1.92-.28-3.62-12.2-.44-12.81-8.36-.32-4.16,3.43-6.9,9.04-7.33,3.15-.24,6.24.35,8.2,1.91,1.76,1.4,1.75,3.41-.65,4.04l-.6.16c-1.77.46-2.57-.42-3.51-.94-1.07-.58-2.03-.8-2.95-.73-1.53.12-2.47.79-2.39,1.83.28,3.57,12.33-.29,12.96,7.89.34,4.43-3.32,7.42-9.48,7.89-3.61.28-6.88-.47-8.9-2.14Z"/>
      <path d="M142.21,44.4l1.2-4.1-8.98-16.98c-1.11-2.09-.26-3.65,2.07-3.9l1.33-.14c1.85-.2,3.08.56,3.85,2.25l4.78,10.52,2.39-11.3c.38-1.82,1.43-2.82,3.28-3.02l1.31-.14c2.35-.25,3.52,1.1,2.91,3.36l-6.35,23.21c-.49,1.8-1.6,2.68-3.4,2.87l-1.41.15c-2.35.25-3.54-.87-2.99-2.77Z"/>
    </g>
    <g>
      <path class="st2" d="M48.2,9.67c.37,0,.75.03,1.14.09l5.19.76c6.14.9,10.4,2.98,13,6.36,2.49,3.23,3.32,7.41,2.53,12.78-1.72,11.71-9.56,14.17-15.83,14.17-1.41,0-2.94-.12-4.55-.36l-5.19-.76c-2.28-.33-3.54-1.45-4.19-2.33-.65-.88-1.36-2.4-1.03-4.68l3.04-20.73c.48-3.27,2.73-5.3,5.87-5.3M53.75,31.07c1.49,0,2.25-.12,2.75-3.47.24-1.62.18-2.7-.16-3.21-.23-.34-.73-.64-1.47-.88l-1.11,7.56M48.2,6.67c-4.67,0-8.14,3.09-8.84,7.87l-3.04,20.73c-.48,3.3.6,5.58,1.59,6.91.99,1.33,2.87,3.02,6.16,3.51l5.19.76c1.75.26,3.43.39,4.99.39,10.54,0,17.21-5.94,18.79-16.74.91-6.22-.11-11.14-3.13-15.05-3.11-4.02-7.99-6.48-14.94-7.5l-5.19-.76c-.53-.08-1.06-.12-1.58-.12h0Z"/>
      <path class="st2" d="M89.25,17.85c3.32,0,5.66,2.21,5.97,5.63l1.38,15.12c.33,3.68-1.91,6.38-5.59,6.71l-.97.09c-.28.02-.54.04-.8.04-1.24,0-2.33-.28-3.23-.8-1.5,1.08-3.38,1.79-5.4,1.97-.4.04-.8.06-1.19.06-6.67,0-11.27-4.98-12-13.01-.77-8.51,3.4-14.43,10.63-15.09.33-.03.66-.04,1-.04,1.67,0,3.26.36,4.63,1.01.78-.7,2.01-1.38,3.88-1.54l.97-.09c.25-.02.5-.03.74-.03M81.87,34.56s.08,0,.12,0c.33-.03.46-.14.58-.32.13-.2.41-.79.3-2.02-.03-.35-.24-2.11-1.19-2.11-.04,0-.08,0-.12,0-.28.03-.45.12-.6.34-.13.2-.42.78-.31,1.96.03.36.24,2.14,1.21,2.14M89.25,14.85c-.33,0-.67.02-1.01.05l-.97.09c-1.47.13-2.82.53-3.99,1.17-1.35-.42-2.79-.64-4.24-.64-.42,0-.85.02-1.27.06-8.91.81-14.27,8.19-13.35,18.35.87,9.56,6.75,15.74,14.99,15.74.49,0,.98-.02,1.47-.07,1.91-.17,3.74-.72,5.38-1.59.93.29,1.94.44,2.98.44.35,0,.71-.02,1.07-.05l.97-.09c5.3-.48,8.79-4.68,8.31-9.97l-1.38-15.12c-.45-5-4.06-8.35-8.96-8.35h0Z"/>
      <path class="st2" d="M104.23,7.44c.27,0,.55.01.83.04,4.09.36,6.83,3.36,6.5,7.15-.17,1.9-1.07,3.49-2.46,4.54.68.85,1.4,2.3,1.21,4.51l-1.32,15.16c-.3,3.43-2.64,5.65-5.97,5.65-.23,0-.46-.01-.71-.03l-1-.09c-3.67-.32-5.92-3.01-5.6-6.69l1.32-15.16c.16-1.78.86-3.23,1.96-4.21-1.17-1.29-1.73-3.02-1.56-4.91.31-3.56,3.04-5.95,6.8-5.95M104.23,4.44c-5.32,0-9.35,3.57-9.79,8.69-.16,1.78.15,3.5.86,5-.7,1.2-1.13,2.59-1.26,4.12l-1.32,15.16c-.46,5.3,3.04,9.48,8.33,9.94l1,.09c.33.03.65.04.97.04,4.92,0,8.52-3.37,8.96-8.39l1.32-15.16c.15-1.71-.1-3.13-.52-4.27,1.01-1.37,1.62-3,1.78-4.79.47-5.43-3.49-9.9-9.22-10.4-.37-.03-.74-.05-1.09-.05h0Z"/>
      <path class="st2" d="M121.41,14.2c3.5,0,6.6.93,8.72,2.62,1.84,1.46,2.69,3.5,2.28,5.44-.22,1.06-.79,1.97-1.62,2.66,1.75,1.25,3.09,3.19,3.33,6.28.47,6.14-4.33,10.5-12.24,11.11-.57.04-1.13.07-1.69.07-3.78,0-7.1-1.03-9.35-2.89-1.87-1.55-2.71-3.63-2.25-5.58.16-.69.7-2.14,2.43-3.11-1.58-1.28-2.77-3.16-2.99-5.97-.23-3.01.99-5.73,3.43-7.65,2.08-1.64,4.97-2.64,8.37-2.9.53-.04,1.06-.06,1.58-.06M121.41,11.2c-.6,0-1.2.02-1.81.07-3.99.31-7.45,1.53-9.99,3.54-3.21,2.53-4.87,6.26-4.57,10.24.16,2.12.77,3.97,1.8,5.56-.55.79-.96,1.67-1.17,2.61-.72,3.08.5,6.29,3.26,8.58,2.79,2.31,6.79,3.58,11.27,3.58.63,0,1.27-.03,1.92-.07,9.57-.74,15.6-6.5,15-14.33-.19-2.47-.99-4.63-2.35-6.36.26-.54.46-1.12.58-1.73.65-3.07-.6-6.21-3.34-8.4-2.65-2.11-6.41-3.27-10.59-3.27h0Z"/>
      <path class="st2" d="M153.98,14.55c1.89,0,3.48.72,4.48,2.04,1.04,1.36,1.31,3.19.78,5.14l-6.35,23.21c-.8,2.94-2.92,4.73-5.97,5.06l-1.41.15c-.34.04-.66.05-.96.05-1.95,0-3.57-.72-4.55-2.03-.94-1.26-1.19-2.9-.68-4.62l.86-2.93-8.41-15.91c-1.36-2.58-.74-4.52-.25-5.44.49-.93,1.75-2.53,4.65-2.84l1.33-.14c.3-.03.6-.05.88-.05,2.7,0,4.84,1.44,6.02,4.04l1,2.21.5-2.37c.66-3.13,2.75-5.04,5.89-5.38l1.31-.14c.3-.03.59-.05.87-.05M153.98,11.55c-.39,0-.79.02-1.19.07l-1.31.14c-2.9.31-5.28,1.68-6.82,3.83-1.69-1.52-3.85-2.35-6.28-2.35-.4,0-.8.02-1.21.07l-1.33.14c-3.12.34-5.67,1.95-6.98,4.42-1.31,2.47-1.22,5.48.25,8.25l7.84,14.83-.52,1.76c-.76,2.61-.34,5.26,1.16,7.26,1.56,2.09,4.03,3.23,6.95,3.23.42,0,.85-.02,1.28-.07l1.4-.15c4.29-.46,7.4-3.11,8.54-7.25l6.35-23.21c.79-2.88.33-5.64-1.28-7.76-1.58-2.07-4.02-3.22-6.86-3.22h0Z"/>
    </g>
    <g>
      <path class="st3" d="M54.24,43.83c-1.41,0-2.94-.12-4.55-.36l-5.19-.76c-2.28-.33-3.54-1.45-4.19-2.33-.65-.88-1.36-2.4-1.03-4.68l3.04-20.73c.48-3.27,2.73-5.3,5.87-5.3.37,0,.75.03,1.14.09l5.19.76c6.14.9,10.4,2.98,13,6.36,2.49,3.23,3.32,7.41,2.53,12.78-1.72,11.71-9.56,14.17-15.83,14.17ZM53.75,31.07c1.49,0,2.25-.12,2.75-3.47.24-1.62.18-2.7-.16-3.21-.23-.34-.73-.64-1.47-.88l-1.11,7.56Z"/>
      <path class="st3" d="M79.41,46.65c-6.67,0-11.27-4.98-12-13.01-.77-8.51,3.4-14.43,10.63-15.09.33-.03.66-.04,1-.04,1.67,0,3.26.36,4.63,1.01.78-.7,2.01-1.38,3.88-1.54l.97-.09c.25-.02.5-.03.74-.03,3.32,0,5.66,2.21,5.97,5.63l1.38,15.12c.33,3.68-1.91,6.38-5.59,6.71l-.97.09c-.28.02-.54.04-.8.04-1.24,0-2.33-.28-3.23-.8-1.5,1.08-3.38,1.79-5.4,1.97-.4.04-.8.06-1.19.06ZM81.57,30.11c-.28.03-.45.12-.6.34-.13.2-.42.78-.31,1.96.03.36.24,2.14,1.21,2.14.04,0,.08,0,.12,0,.33-.03.46-.14.58-.32.13-.2.41-.79.3-2.02-.03-.35-.24-2.11-1.19-2.11-.04,0-.08,0-.12,0Z"/>
      <path class="st3" d="M103.01,44.49c-.23,0-.46-.01-.71-.03l-1-.09c-3.67-.32-5.92-3.01-5.6-6.69l1.32-15.16c.16-1.78.86-3.23,1.96-4.21-1.17-1.29-1.73-3.02-1.56-4.91.31-3.56,3.04-5.95,6.8-5.95.27,0,.55.01.83.04,4.09.36,6.83,3.36,6.5,7.15-.17,1.9-1.07,3.49-2.46,4.54.68.85,1.4,2.3,1.21,4.51l-1.32,15.16c-.3,3.43-2.64,5.65-5.97,5.65Z"/>
      <path class="st3" d="M120.2,42.37c-3.78,0-7.1-1.03-9.35-2.89-1.87-1.55-2.71-3.63-2.25-5.58.16-.69.7-2.14,2.43-3.11-1.58-1.28-2.77-3.16-2.99-5.97-.23-3.01.99-5.73,3.43-7.65,2.08-1.64,4.97-2.64,8.37-2.9.53-.04,1.06-.06,1.58-.06,3.5,0,6.6.93,8.72,2.62,1.84,1.46,2.69,3.5,2.28,5.44-.22,1.06-.79,1.97-1.62,2.66,1.75,1.25,3.09,3.19,3.33,6.28.47,6.14-4.33,10.5-12.24,11.11-.57.04-1.13.07-1.69.07Z"/>
      <path class="st3" d="M144.56,50.2c-1.95,0-3.57-.72-4.55-2.03-.94-1.26-1.19-2.9-.68-4.62l.86-2.93-8.41-15.91c-1.36-2.58-.74-4.52-.25-5.44.49-.93,1.75-2.53,4.65-2.84l1.33-.14c.3-.03.6-.05.88-.05,2.7,0,4.84,1.44,6.02,4.04l1,2.21.5-2.37c.66-3.13,2.75-5.04,5.89-5.38l1.31-.14c.3-.03.59-.05.87-.05,1.89,0,3.48.72,4.48,2.04,1.04,1.36,1.31,3.19.78,5.14l-6.35,23.21c-.8,2.94-2.92,4.73-5.97,5.06l-1.41.15c-.34.04-.66.05-.96.05Z"/>
    </g>
    <g>
      <path class="st1" d="M42.25,36.14l3.04-20.73c.3-2.04,1.57-2.98,3.61-2.68l5.19.76c10.9,1.6,14.27,7.09,13.01,15.74-1.24,8.47-6.08,12.88-16.97,11.28l-5.19-.76c-2.04-.3-2.98-1.57-2.68-3.61ZM59.46,28.04c.66-4.47-.34-7.08-6.07-7.92l-1.04-.15-2.02,13.77,1.1.16c5.67.83,7.37-1.35,8.03-5.86Z"/>
      <path class="st1" d="M80.33,43.61c-5.36.49-9.29-3.24-9.93-10.24-.64-7.01,2.53-11.34,7.91-11.83,2.61-.24,5.45.83,6.64,3.01l-.04-.41c-.22-1.95.91-3,2.91-3.18l.97-.09c2.05-.19,3.27.82,3.45,2.88l1.38,15.12c.19,2.05-.83,3.27-2.88,3.46l-.97.09c-1.97.18-3.29-.61-3.43-2.49l-.02-.35c-.77,2.29-3.39,3.81-5.98,4.05h0ZM85.86,31.94c-.29-3.18-2.11-5.04-4.57-4.82-2.42.22-3.91,2.4-3.62,5.56.29,3.2,2.12,5.08,4.6,4.85,2.45-.22,3.89-2.39,3.6-5.6Z"/>
      <path class="st1" d="M98.69,37.93l1.32-15.16c.18-2.05,1.38-3.07,3.43-2.89l1,.09c2.04.18,3.05,1.39,2.87,3.44l-1.32,15.16c-.18,2.05-1.38,3.07-3.43,2.89l-1-.09c-2.04-.18-3.05-1.39-2.87-3.44ZM100.41,13.65c.2-2.33,2.01-3.4,4.39-3.19,2.17.19,3.97,1.57,3.77,3.9-.21,2.36-2.22,3.38-4.39,3.19-2.38-.21-3.98-1.54-3.77-3.9Z"/>
      <path class="st1" d="M112.75,37.17c-1.74-1.44-1.91-3.51.74-4.14l.78-.19c1.5-.35,2.26.15,3.56,1.1,1.06.77,2.32,1.02,3.48.93,1.62-.12,2.6-.88,2.52-1.92-.28-3.62-12.2-.44-12.81-8.36-.32-4.16,3.43-6.9,9.04-7.33,3.15-.24,6.24.35,8.2,1.91,1.76,1.4,1.75,3.41-.65,4.04l-.6.16c-1.77.46-2.57-.42-3.51-.94-1.07-.58-2.03-.8-2.95-.73-1.53.12-2.47.79-2.39,1.83.28,3.57,12.33-.29,12.96,7.89.34,4.43-3.32,7.42-9.48,7.89-3.61.28-6.88-.47-8.9-2.14Z"/>
      <path class="st1" d="M142.21,44.4l1.2-4.1-8.98-16.98c-1.11-2.09-.26-3.65,2.07-3.9l1.33-.14c1.85-.2,3.08.56,3.85,2.25l4.78,10.52,2.39-11.3c.38-1.82,1.43-2.82,3.28-3.02l1.31-.14c2.35-.25,3.52,1.1,2.91,3.36l-6.35,23.21c-.49,1.8-1.6,2.68-3.4,2.87l-1.41.15c-2.35.25-3.54-.87-2.99-2.77Z"/>
    </g>
  </g>
  <g>
    <g>
      <path class="st3" d="M17.79,44.43c-.47-.18-.95-.36-1.46-.55-5.23-1.95-11.74-4.39-13.12-9.74-.54-2.11-.05-4.42,1.33-6.19,1.39-1.8,3.48-2.83,5.73-2.83,1.11,0,2.8.27,4.66,1.52,1.61-3.26,4.39-4.54,6.86-4.54,3.32,0,6.21,2.19,7.05,5.33,1.42,5.35-3.06,10.65-6.66,14.92-.35.41-.68.81-1,1.19l-1.37,1.66-2.01-.77Z"/>
      <path class="st1" d="M18.86,41.63c-4.71-1.81-11.64-3.97-12.74-8.24s5.3-9.1,10.45-.51c.29-10.02,8.23-8.94,9.36-4.68s-3.85,9.54-7.08,13.42Z"/>
    </g>
    <path class="st2" d="M21.79,22.11c3.32,0,6.21,2.19,7.05,5.33,1.42,5.35-3.06,10.65-6.66,14.92-.35.41-.68.81-1,1.19l-1.37,1.66-2.01-.77c-.47-.18-.95-.36-1.46-.55-5.23-1.95-11.74-4.39-13.12-9.74-.54-2.11-.05-4.42,1.33-6.19,1.39-1.8,3.48-2.83,5.73-2.83,1.11,0,2.8.27,4.66,1.52,1.61-3.26,4.39-4.54,6.86-4.54M21.79,19.11c-3.07,0-5.86,1.33-7.87,3.67-1.43-.52-2.7-.66-3.65-.66-3.18,0-6.13,1.45-8.1,3.99C.23,28.61-.46,31.89.31,34.89c1.77,6.87,9.4,9.72,14.97,11.81.5.18.97.36,1.43.54l2.01.77c.35.13.71.2,1.07.2.87,0,1.73-.38,2.31-1.08l1.37-1.66c.29-.35.59-.7.89-1.06l.09-.11c3.84-4.54,9.09-10.76,7.27-17.62-1.18-4.45-5.28-7.56-9.95-7.56h0Z"/>
  </g>
  <g>
    <g>
      <path class="st3" d="M176.94,43.55c-.32-.38-.66-.78-1-1.19-3.6-4.26-8.09-9.57-6.67-14.92.83-3.14,3.73-5.33,7.05-5.33,2.46,0,5.24,1.28,6.86,4.54,1.86-1.26,3.56-1.53,4.66-1.53,2.25,0,4.33,1.03,5.73,2.83,1.37,1.77,1.87,4.08,1.33,6.19-1.38,5.36-7.89,7.79-13.11,9.74-.5.19-.99.37-1.46.55l-2.01.77-1.37-1.66Z"/>
      <path class="st1" d="M179.25,41.63c4.71-1.81,11.64-3.97,12.74-8.24s-5.3-9.1-10.45-.51c-.29-10.02-8.23-8.94-9.36-4.68s3.85,9.54,7.08,13.42Z"/>
    </g>
    <path class="st2" d="M176.33,22.11c2.46,0,5.24,1.28,6.86,4.54,1.86-1.26,3.56-1.53,4.66-1.53,2.25,0,4.33,1.03,5.73,2.83,1.37,1.77,1.87,4.08,1.33,6.19-1.38,5.36-7.89,7.79-13.11,9.74-.5.19-.99.37-1.46.55l-2.01.77-1.37-1.66c-.32-.38-.66-.78-1-1.19-3.6-4.26-8.09-9.57-6.67-14.92.83-3.14,3.73-5.33,7.05-5.33M176.33,19.11c-4.67,0-8.77,3.11-9.95,7.56-1.82,6.86,3.43,13.08,7.27,17.62.36.43.68.81.99,1.17l1.37,1.65c.58.7,1.43,1.09,2.31,1.09.36,0,.72-.06,1.07-.2l2.01-.77c.46-.18.94-.36,1.43-.54,5.57-2.08,13.2-4.93,14.97-11.81.77-3,.08-6.28-1.86-8.78-1.97-2.54-4.92-3.99-8.1-3.99-.95,0-2.22.14-3.65.66-2.01-2.34-4.8-3.67-7.87-3.67h0Z"/>
  </g>
  <g>
    <path class="st0" d="M70.32,39.87c0-1.56-1.23-2.96-2.9-2.96-3.25,0-7.24,7.87-8.31,13.42-3.3,0-4.57-.65-4.57-3.43s1.96-6.84,3.54-7.44c.22.11.33.42.33.89,0,1.74-1.49,5.48-2.43,6.75.09.27.29.38.53.38,1.11,0,3.48-2.61,3.48-6.42,0-1.29-.76-2.32-2.3-2.32-3.12,0-5.35,4.66-5.35,8.07,0,3.21,2.27,4.37,6.08,4.37h.51c-.09.6-.13,1.18-.13,1.72,0,1.96.87,3.28,2.32,3.28.87,0,1.6-.8,2.3-2.01-2.01,5.01-2.43,6.04-3.81,6.98-.87-.6-1.23-1.23-1.23-1.76,0-.67.58-1.16,1.54-1.38,0-.69-.33-.76-1-.76-1,0-2.59.56-2.59,2.16s1.81,2.74,3.86,2.74c1.23,0,2.83-1.52,3.74-3.79,2.12-5.33,2.38-6.44,2.38-6.91,0-.4-.4-.49-.85-.49s-.87.09-1,.11c-.78,2.01-2.01,3.97-3.01,4.01-.31-.2-.45-.71-.45-1.45s.13-1.69.38-2.76c6.11-1.36,8.91-6.89,8.91-10.99ZM68.01,37.91c.27.16.4.65.4,1.34,0,2.76-2.16,8.89-6.75,10.61,1.27-4.81,4.21-11.32,6.35-11.94ZM86.79,42.9c-.22-.94-.76-1.81-1.58-1.81-1.13,0-1.79,1.23-3.16,4.67-1.69,3.99-4.13,7.76-5.49,8.79-.09-.16-.16-.36-.13-.65,0-.36.11-.85.33-1.49,1.07-2.94,1.94-5.21,2.7-7.09,1.34-.04,1.96-.18,1.96-.53,0-.07-.02-.16-.09-.27-.49,0-1-.02-1.54-.02.36-.76.71-1.58.71-1.94,0-.51-.42-.91-1.67-.87-.25.49-.69,1.54-1.23,2.81-.38,0-.76,0-1.11.02-.31.02-.4.22-.4.45,0,.07,0,.09.02.18.33.04.74.09,1.18.11-.57,1.39-1.19,2.96-1.71,4.4-1.42,2.53-3.26,4.83-5.2,5.09-.6-.22-.87-.69-.87-1.4,0-.2.02-.42.04-.67.22.07.42.09.62.09,2.74,0,5.01-4.52,5.01-6.4,0-1.63-1.25-2.18-2.38-2.18-1.03,0-1.76.47-2.34,1.14-1.74,1.96-3.01,5.66-3.01,7.91,0,1.54,1.4,2.56,3.14,2.56h.02c1.37,0,2.87-1.67,4.1-3.59-.24.81-.38,1.46-.38,1.83,0,1,.96,1.76,1.87,1.76.6,0,1.39-.71,2.25-1.85,0,0,0,.02,0,.03,0,.85.74,1.83,2.41,1.83,1.94,0,3.08-2.05,3.08-4.66.02-2.09-.71-4.43-.71-5.35,0-1.31,2.23-2.3,3.54-2.9ZM73.51,45.04c.11.09.16.27.16.51,0,1.63-1.96,6.17-3.97,6.51.62-2.74,2.76-6.95,3.81-7.02ZM80.71,54.84c-.42-.27-1.07-1.18-1.47-1.89-.02,0-.04,0-.07.01.33-.51.67-1.07,1-1.66.61-1.13,1.53-3.01,2.05-4.26,0,.03,0,.06,0,.09-.16,4.72-.8,7.04-1.52,7.71ZM103.03,58.36c0,.62-1,1.38-2.09,1.38-1.69,0-1.6-2.07-1.49-4.03.07-1.29.13-2.52-.27-3.14-.18.02-.33.02-.51.02-1.52,3.94-3.45,7.02-6.82,7.02-3.12,0-4.48-2.5-4.46-5.33.02-3.63,2.32-7.82,5.93-7.82,1.69,0,2.45,1.36,2.45,2.99,0,2.65-1.67,5.86-4.08,5.86-.42,0-.78-.16-.87-.51,1.85-1.54,3.28-4.61,3.28-6.51,0-.53-.11-.96-.4-1.2-2.41.69-4.03,4.28-4.03,7.38,0,1.96.69,3.72,2.27,4.37,3.03-1.63,4.61-6.35,6.4-11.54.42-1.18.85-2.38,1.29-3.59.62-1.67,1.47-2.43,2.3-2.43.4,0,.62.2.69.4-.49.36-.82,1.52-.98,1.94-.89,2.54-1.67,5.35-2.56,7.91.18.07.33.18.45.31,2.63-1.58,5.55-7.82,5.57-11.77,0-.89-.13-1.63-.58-2.09-3.19,0-7.98,6.37-11.74,6.37-1.74,0-2.41-1.18-2.41-2.54,0-.65.27-1.2.8-1.23.22.69.58,1.43,1.69,1.43,2.72,0,8.13-5.04,11.05-5.04,2.52,0,3.5,1.8,3.5,3.57,0,3.03-2.92,10.43-7.2,11.83,1.09.74,1.43,2.16,1.36,4.03-.02.89,0,1.74.18,2.09.42-.09.8-.38.96-.53.2.04.33.11.33.4ZM137.97,50.65c-.69,1.72-2.25,3.79-3.68,4.84.98-2.67,1.74-4.9,2.03-5.79.69-2.12,1.52-4.1,1.52-4.7,0-.51-.8-.6-1.76-.51-1.47,4.46-4.19,9.92-5.55,9.98-.2-1.31,3.21-7.64,3.21-9.34,0-.56-.27-.78-1.76-.71-.06.8-.77,2.39-1.52,4.1-1.41,2.88-3.28,5.85-4.59,6.37.45-1.4,1.31-3.48,2.12-5.53,1.4-3.59,2.67-6.73,3.57-8.96.47-1.2,1-2.27,1-2.72,0-.49-.91-.53-1.67-.51-1,2.23-2.54,5.97-3.77,9.03-.09-1.27-1.05-1.98-1.83-1.98-1.52,0-2.76,2.41-3.79,5.01-.14.36-.28.73-.4,1.1-1.23,2.24-2.6,4.19-3.52,4.56.25-1,1.23-3.1,2.03-5.19.74-1.94,1.38-3.83,1.38-4.39,0-.82-.71-.89-1.63-.87-.2.51-.42,1.11-.67,1.72-.11-1.25-1.05-1.94-1.83-1.94-1.52,0-2.76,2.41-3.79,5.01-.19.48-.37.98-.53,1.48-1.32,2.09-2.91,3.82-4.58,4.05-.6-.22-.87-.69-.87-1.4,0-.2.02-.42.04-.67.22.07.42.09.62.09,2.74,0,5.01-4.52,5.01-6.4,0-1.63-1.25-2.18-2.38-2.18-1.03,0-1.76.47-2.34,1.14-1.74,1.96-3.01,5.66-3.01,7.91,0,1.54,1.4,2.56,3.14,2.56h.02c1.28,0,2.67-1.45,3.85-3.21-.1.52-.15,1-.15,1.42,0,1.03,1,1.78,1.78,1.78,1.07,0,2.07-1.94,3.3-4.37-.42,1.29-.94,2.47-.94,3.03,0,.6.65,1.34,1.31,1.34.91,0,2.07-1.43,3.11-3.16-.09.5-.15.97-.15,1.38,0,1.03.94,1.85,1.67,1.85,1.07,0,2.18-1.76,3.34-4.26-.47,1.36-.91,2.16-.91,2.92,0,.62.58,1.27,1.18,1.27.97,0,2.16-1.39,3.21-3.1-.14.51-.23.97-.23,1.34,0,1.11,1.09,1.52,1.81,1.52,1.18,0,2.32-1.76,3.39-4.12-.51,1.34-1.16,3.19-1.81,4.97-.78.22-1.52.36-2.05.49-2.99.6-3.88,2.03-3.88,3.39s1.09,2.67,3.05,2.67c1.23,0,2.83-1.52,3.74-3.79.38-.94.74-1.87,1.09-2.79,2.65-1.16,4.48-4.26,4.48-5.46,0-.25-.2-.31-.47-.27ZM111.1,45.04c.11.09.16.27.16.51,0,1.63-1.96,6.17-3.97,6.51.62-2.74,2.76-6.95,3.81-7.02ZM116.98,50.05c-1.14,2.32-2.36,4.35-3.16,4.72-.11-.6.33-2.59,1.14-4.55,1.52-3.74,2.07-4.64,2.52-4.64.38,0,.74.45.71,1.2,0,.82-.67,2.09-1.2,3.25ZM125.41,50.05c-.69,1.58-2.07,4.55-3.28,4.72-.11-.6.42-2.56,1.54-5.26,1.23-3.03,1.78-3.92,2.23-3.92.38,0,.74.45.71,1.2,0,.82-.69,2.07-1.2,3.25ZM129.66,61.82c-.98-.02-1.56-.87-1.56-1.78,0-1.54,1.52-2.01,3.61-2.79-.82,2.21-1.58,4.14-2.05,4.57ZM140.19,53.34c-.04-.2.03-.6.07-.93.35-3.02,1.25-7.57,1.56-13.85.32-.21.65-.37.97-.45.7-.16,1.27.08,1.44.84.48,2.15-2.03,7.95-3.44,14.61-.26.06-.54.05-.6-.23ZM141.54,55.41c.18.78-.52,2.36-1.44,2.56-.54.12-1.39-.28-1.53-.94-.1-.46.26-2,1.15-2.2.83-.19,1.69,0,1.82.57Z"/>
    <path class="st3" d="M67.43,36.9c1.67,0,2.9,1.4,2.9,2.96,0,4.1-2.81,9.63-8.91,10.99-.25,1.07-.38,2.03-.38,2.76s.13,1.25.45,1.45c1-.04,2.23-2.01,3.01-4.01.13-.02.58-.11,1-.11.45,0,.85.09.85.49,0,.47-.27,1.58-2.38,6.91-.91,2.27-2.52,3.79-3.74,3.79-2.05,0-3.86-1.16-3.86-2.74s1.58-2.16,2.59-2.16c.67,0,1,.07,1,.76-.96.22-1.54.71-1.54,1.38,0,.53.36,1.16,1.23,1.76,1.38-.94,1.81-1.96,3.81-6.98-.69,1.2-1.43,2.01-2.3,2.01-1.45,0-2.32-1.31-2.32-3.28,0-.53.04-1.11.13-1.72h-.51c-3.81,0-6.08-1.16-6.08-4.37,0-3.41,2.23-8.07,5.35-8.07,1.54,0,2.3,1.03,2.3,2.32,0,3.81-2.36,6.42-3.48,6.42-.25,0-.45-.11-.53-.38.94-1.27,2.43-5.01,2.43-6.75,0-.47-.11-.78-.33-.89-1.58.6-3.54,4.79-3.54,7.44,0,2.79,1.27,3.43,4.57,3.43,1.07-5.55,5.06-13.42,8.31-13.42M61.65,49.85c4.59-1.72,6.75-7.84,6.75-10.61,0-.69-.13-1.18-.4-1.34-2.14.62-5.08,7.13-6.35,11.94M103.9,36.97c2.52,0,3.5,1.8,3.5,3.57,0,3.03-2.92,10.43-7.2,11.83,1.09.74,1.43,2.16,1.36,4.03-.02.89,0,1.74.18,2.09.42-.09.8-.38.96-.53.2.04.33.11.33.4,0,.62-1,1.38-2.09,1.38-1.69,0-1.6-2.07-1.49-4.03.07-1.29.13-2.52-.27-3.14-.18.02-.33.02-.51.02-1.52,3.94-3.45,7.02-6.82,7.02-3.12,0-4.48-2.5-4.46-5.33.02-3.63,2.32-7.82,5.93-7.82,1.69,0,2.45,1.36,2.45,2.99,0,2.65-1.67,5.86-4.08,5.86-.42,0-.78-.16-.87-.51,1.85-1.54,3.28-4.61,3.28-6.51,0-.53-.11-.96-.4-1.2-2.41.69-4.03,4.28-4.03,7.38,0,1.96.69,3.72,2.27,4.37,3.03-1.63,4.61-6.35,6.4-11.54.42-1.18.85-2.38,1.29-3.59.62-1.67,1.47-2.43,2.3-2.43.4,0,.62.2.69.4-.49.36-.82,1.52-.98,1.94-.89,2.54-1.67,5.35-2.56,7.91.18.07.33.18.45.31,2.63-1.58,5.55-7.82,5.57-11.77,0-.89-.13-1.63-.58-2.09-3.19,0-7.98,6.37-11.74,6.37-1.74,0-2.41-1.18-2.41-2.54,0-.65.27-1.2.8-1.23.22.69.58,1.43,1.69,1.43,2.72,0,8.13-5.04,11.05-5.04M131.17,37.17c.68,0,1.39.09,1.39.52s-.53,1.52-1,2.72c-.89,2.23-2.16,5.37-3.57,8.96-.8,2.05-1.67,4.12-2.12,5.53,1.31-.52,3.18-3.49,4.59-6.37.75-1.71,1.46-3.3,1.52-4.1.17,0,.33-.01.47-.01,1.09,0,1.3.23,1.3.72,0,1.69-3.41,8.02-3.21,9.34,1.36-.07,4.08-5.53,5.55-9.98.21-.02.41-.03.6-.03.67,0,1.16.14,1.16.54,0,.6-.82,2.58-1.52,4.7-.29.89-1.05,3.12-2.03,5.79,1.43-1.05,2.99-3.12,3.68-4.84.05,0,.1-.01.14-.01.19,0,.32.08.32.28,0,1.2-1.83,4.3-4.48,5.46-.36.91-.71,1.85-1.09,2.79-.91,2.27-2.52,3.79-3.74,3.79-1.96,0-3.05-1.29-3.05-2.67s.89-2.79,3.88-3.39c.53-.13,1.27-.27,2.05-.49.65-1.78,1.29-3.63,1.81-4.97-1.07,2.36-2.21,4.12-3.39,4.12-.71,0-1.81-.4-1.81-1.52,0-.37.09-.83.23-1.34-1.06,1.71-2.24,3.1-3.21,3.1-.6,0-1.18-.65-1.18-1.27,0-.76.45-1.56.91-2.92-1.16,2.5-2.27,4.26-3.34,4.26-.74,0-1.67-.82-1.67-1.85,0-.41.06-.88.15-1.38-1.04,1.74-2.2,3.16-3.11,3.16-.67,0-1.31-.74-1.31-1.34,0-.56.51-1.74.94-3.03-1.23,2.43-2.23,4.37-3.3,4.37-.78,0-1.78-.76-1.78-1.78,0-.42.06-.9.15-1.42-1.18,1.76-2.57,3.21-3.85,3.21h-.02c-1.74,0-3.14-1.03-3.14-2.56,0-2.25,1.27-5.95,3.01-7.91.58-.67,1.31-1.14,2.34-1.14,1.14,0,2.38.56,2.38,2.18,0,1.87-2.27,6.4-5.01,6.4-.2,0-.4-.02-.62-.09-.02.25-.04.47-.04.67,0,.71.27,1.18.87,1.4,1.66-.23,3.26-1.96,4.58-4.05.16-.5.33-.99.53-1.48,1.03-2.61,2.27-5.01,3.79-5.01.78,0,1.72.69,1.83,1.94.25-.6.47-1.2.67-1.72.08,0,.17,0,.25,0,.79,0,1.38.12,1.38.87,0,.56-.65,2.45-1.38,4.39-.8,2.09-1.78,4.19-2.03,5.19.92-.37,2.29-2.32,3.52-4.56.12-.37.26-.74.4-1.1,1.03-2.61,2.27-5.01,3.79-5.01.78,0,1.74.71,1.83,1.98,1.23-3.05,2.76-6.8,3.77-9.03.09,0,.19,0,.29,0M107.29,52.06c2.01-.33,3.97-4.88,3.97-6.51,0-.25-.04-.42-.16-.51-1.05.07-3.19,4.28-3.81,7.02M122.13,54.78c1.2-.18,2.58-3.14,3.28-4.72.51-1.18,1.2-2.43,1.2-3.25.02-.76-.33-1.2-.71-1.2-.45,0-1,.89-2.23,3.92-1.11,2.7-1.65,4.66-1.54,5.26M113.82,54.78c.8-.38,2.03-2.41,3.16-4.72.53-1.16,1.2-2.43,1.2-3.25.02-.76-.33-1.2-.71-1.2-.45,0-1,.89-2.52,4.64-.8,1.96-1.25,3.94-1.14,4.55M129.66,61.82c.47-.42,1.23-2.36,2.05-4.57-2.09.78-3.61,1.25-3.61,2.79,0,.91.58,1.76,1.56,1.78M143.17,38.08c.52,0,.92.27,1.06.89.48,2.15-2.03,7.95-3.44,14.61-.08.02-.16.03-.23.03-.17,0-.32-.06-.37-.26-.04-.2.03-.6.07-.93.35-3.02,1.25-7.57,1.56-13.85.32-.21.65-.37.97-.45.13-.03.26-.05.39-.05M85.21,41.09c.82,0,1.36.87,1.58,1.81-1.31.6-3.54,1.58-3.54,2.9,0,.91.74,3.25.71,5.35,0,2.61-1.14,4.66-3.08,4.66-1.67,0-2.41-.98-2.41-1.83,0,0,0-.02,0-.03-.86,1.14-1.65,1.85-2.25,1.85-.91,0-1.87-.76-1.87-1.76,0-.37.15-1.02.38-1.83-1.23,1.92-2.73,3.59-4.1,3.59h-.02c-1.74,0-3.14-1.03-3.14-2.56,0-2.25,1.27-5.95,3.01-7.91.58-.67,1.31-1.14,2.34-1.14,1.14,0,2.38.56,2.38,2.18,0,1.87-2.27,6.4-5.01,6.4-.2,0-.4-.02-.62-.09-.02.25-.04.47-.04.67,0,.71.27,1.18.87,1.4,1.94-.27,3.78-2.57,5.2-5.09.52-1.44,1.14-3.01,1.71-4.4-.45-.02-.85-.07-1.18-.11-.02-.09-.02-.11-.02-.18,0-.22.09-.42.4-.45.36-.02.74-.02,1.11-.02.53-1.27.98-2.32,1.23-2.81.06,0,.13,0,.18,0,1.11,0,1.49.39,1.49.87,0,.36-.36,1.18-.71,1.94.53,0,1.05.02,1.54.02.07.11.09.2.09.27,0,.36-.62.49-1.96.53-.76,1.87-1.63,4.14-2.7,7.09-.22.65-.33,1.14-.33,1.49-.02.29.04.49.13.65,1.36-1.03,3.8-4.8,5.49-8.79,1.37-3.44,2.03-4.67,3.16-4.67M69.7,52.06c2.01-.33,3.97-4.88,3.97-6.51,0-.25-.04-.42-.16-.51-1.05.07-3.19,4.28-3.81,7.02M79.17,52.96s.04-.01.07-.01c.4.71,1.05,1.63,1.47,1.89.71-.67,1.36-2.99,1.52-7.71,0-.03,0-.06,0-.09-.51,1.25-1.43,3.13-2.05,4.26-.33.6-.67,1.15-1,1.66M140.33,54.77c.6,0,1.12.22,1.22.64.18.78-.52,2.36-1.44,2.56-.06.01-.13.02-.21.02-.53,0-1.2-.38-1.33-.96-.1-.46.26-2,1.15-2.2.2-.05.41-.07.6-.07M67.43,36.15c-2.26,0-4.31,2.72-5.62,5-1.45,2.51-2.68,5.67-3.3,8.41-2.49-.07-3.1-.64-3.2-2.16.2.51.65.82,1.22.82,1.66,0,4.23-3.08,4.23-7.17,0-1.83-1.22-3.07-3.05-3.07-3.72,0-6.1,5.22-6.1,8.82,0,3.31,2.19,5.03,6.5,5.11-.03.33-.04.66-.04.97,0,1.8.65,3.14,1.75,3.71-.33-.12-.68-.12-.88-.12-1.62,0-3.34,1.02-3.34,2.91s2.02,3.49,4.61,3.49c1.61,0,3.43-1.75,4.44-4.26,1.14-2.87,1.75-4.53,2.08-5.55,0,.06,0,.11,0,.17,0,1.89,1.67,3.31,3.89,3.31,1,0,2.04-.59,3.12-1.76.37,1.07,1.48,1.76,2.5,1.76.61,0,1.27-.37,2-1.14.51.67,1.4,1.14,2.65,1.14,2.29,0,3.83-2.17,3.83-5.41.01-1.34-.26-2.74-.48-3.86-.12-.62-.23-1.2-.23-1.48,0-.8,2.1-1.75,2.99-2.16l.11-.05.56-.26-.14-.6c-.35-1.47-1.24-2.38-2.31-2.38-1.46,0-2.27,1.33-3.28,3.72l-.17-.29h-.42c-.13,0-.26,0-.39,0,.22-.56.32-.93.32-1.21,0-.38-.16-1.62-2.24-1.62-.07,0-.14,0-.21,0l-.44.02-.2.4c-.23.46-.62,1.37-1.05,2.4-.22,0-.45,0-.66.02-.53.04-.91.35-1.05.81-.6-.78-1.59-1.15-2.58-1.15-1.1,0-2.05.44-2.84,1.32.73-1.59,1.1-3.29,1.1-4.9,0-2.05-1.64-3.71-3.65-3.71h0ZM62.86,48.37c1.32-4.17,3.37-8.19,4.78-9.41,0,.08,0,.17,0,.28,0,2.3-1.64,6.96-4.79,9.13h0ZM55.3,46.77c.05-2,1.28-4.83,2.35-6.06-.18,1.65-1.43,4.8-2.26,5.93l-.09.13h0ZM75.94,46.61c0-.08,0-.16,0-.24,0-.17-.01-.34-.03-.5h.1c.07.02.14.03.2.04-.09.22-.18.45-.28.69h0ZM79.97,46.06c.41-.02.84-.06,1.21-.17-1.09,2.48-2.43,4.79-3.55,6.34.87-2.39,1.64-4.42,2.35-6.17h0ZM71.16,49.95c.44-1.1.97-2.15,1.44-2.92-.32.95-.85,2.07-1.44,2.92h0ZM65.1,50.21c1.19-.7,2.21-1.58,3.05-2.57-.51,1.1-.9,2.27-1.14,3.35-.14-.37-.52-.8-1.52-.8-.13,0-.27,0-.39.02h0ZM62.04,51.47c.6-.16,1.16-.35,1.7-.58-.7,1.77-1.46,2.8-1.93,3.22-.02-.12-.03-.28-.03-.49,0-.57.09-1.31.26-2.15h0ZM80.09,52.92c.25-.4.49-.81.74-1.25.11-.2.22-.42.34-.65-.18,1.32-.41,2.12-.6,2.61-.15-.2-.32-.45-.48-.71h0ZM70.28,53.52c.78-.02,1.51-.32,2.17-.79-.68.67-1.34,1.09-1.96,1.24-.11-.07-.19-.2-.21-.45h0ZM59.64,60.18c-.31-.29-.49-.58-.49-.81,0-.32.49-.54.96-.65l.58-.13v-.6c0-.7-.27-1.07-.61-1.27.32.13.68.2,1.07.2.13,0,.26-.01.38-.03-.83,1.98-1.27,2.76-1.89,3.3h0ZM103.9,36.22c-1.7,0-3.84,1.31-6.1,2.7-1.88,1.15-3.83,2.34-4.95,2.34-.53,0-.75-.2-.98-.91l-.18-.54-.57.02c-.91.04-1.52.83-1.52,1.98,0,2.03,1.21,3.29,3.16,3.29,2.22,0,4.55-1.8,6.81-3.54,1.64-1.26,3.32-2.56,4.57-2.8.13.29.2.73.2,1.31-.02,3.06-1.99,7.77-4.01,10.07.25-.76.49-1.53.72-2.29.42-1.33.85-2.71,1.3-4,.02-.06.05-.14.08-.23.27-.78.48-1.24.63-1.35l.44-.32-.17-.52c-.18-.56-.74-.91-1.4-.91-.71,0-2.05.38-3,2.92-.33.9-.65,1.79-.97,2.68l-.33.92-.09.25c-.36,1.04-.71,2.07-1.07,3.06.03-.3.05-.6.05-.9,0-2.27-1.26-3.74-3.2-3.74-3.96,0-6.65,4.43-6.68,8.57-.02,1.94.57,3.61,1.64,4.69.9.91,2.13,1.39,3.56,1.39,3.53,0,5.55-2.95,6.9-5.99,0,.42-.03.86-.05,1.27-.09,1.56-.19,3.29.7,4.23.27.28.75.62,1.54.62,1.46,0,2.84-1.04,2.84-2.13,0-.35-.12-.95-.92-1.13l-.4-.09-.15.15c0-.23,0-.51,0-.87.04-1.15-.02-2.67-.81-3.81,1.46-.8,2.72-2.19,3.73-3.77-.59,1.58-.93,3.2-.93,4.39,0,1.89,1.67,3.31,3.89,3.31.99,0,2.03-.59,3.11-1.75.37,1.04,1.43,1.75,2.4,1.75.7,0,1.3-.43,1.88-1.15.37.65,1.08,1.15,1.8,1.15.52,0,1.28-.2,2.41-1.57.4.97,1.37,1.64,2.23,1.64.66,0,1.29-.35,1.94-1.12.34.61.99,1.05,1.67,1.05.77,0,1.58-.5,2.47-1.52.31.59.88.99,1.53,1.17-3.73.8-4.3,2.9-4.3,4.08,0,1.7,1.31,3.42,3.8,3.42,1.61,0,3.43-1.75,4.44-4.26.27-.68.54-1.35.8-2.02l.19-.49c2.71-1.34,4.64-4.46,4.64-6.01,0-.6-.45-1.03-1.07-1.03-.08,0-.17,0-.27.02l-.42.07-.16.39c-.25.61-.61,1.27-1.04,1.9.38-1.09.66-1.92.8-2.35.24-.74.5-1.46.73-2.12.54-1.51.82-2.32.82-2.82,0-.39-.19-1.29-1.91-1.29-.21,0-.43.01-.67.03l-.49.05-.15.47c-.92,2.79-2.08,5.3-3.06,7.04.17-.4.33-.79.48-1.14,1.06-2.51,1.7-4.1,1.7-5.02,0-1.47-1.49-1.47-2.05-1.47-.15,0-.32,0-.5.01l-.66.03-.05.66c-.05.65-.73,2.19-1.38,3.69l-.07.17c-.6,1.23-1.23,2.36-1.83,3.3.03-.08.06-.15.09-.23.22-.54.44-1.1.66-1.65,1.11-2.83,2.13-5.38,2.95-7.43l.61-1.53c.15-.37.3-.73.43-1.06.41-.97.62-1.5.62-1.94,0-.84-.72-1.27-2.14-1.27h0c-.1,0-.21,0-.31,0h-.47s-.19.44-.19.44c-.93,2.06-2.23,5.23-3.12,7.42-.5-.53-1.16-.82-1.79-.82-2.05,0-3.42,2.78-4.49,5.49-.13.33-.26.69-.39,1.07-.14.25-.27.49-.4.71.1-.26.2-.51.3-.77,1.43-3.77,1.43-4.44,1.43-4.66,0-1.08-.72-1.62-2.13-1.62-.09,0-.18,0-.27,0h-.5s-.18.48-.18.48l-.04.09c-.5-.51-1.15-.79-1.76-.79-1.38,0-2.45,1.26-3.33,2.9,0-2.02-1.58-2.92-3.13-2.92-1.13,0-2.1.47-2.91,1.4-.2.23-.39.47-.58.73.8-1.97,1.23-3.86,1.23-5.03,0-2.15-1.31-4.32-4.25-4.32h0ZM123.36,52.48c.23-.7.55-1.58,1-2.67.77-1.91,1.23-2.82,1.49-3.23,0,.06.01.12,0,.2,0,.49-.41,1.37-.76,2.14-.13.28-.26.56-.38.83-.53,1.23-.99,2.1-1.36,2.72h0ZM115.12,51.96c.15-.45.32-.94.53-1.44.82-2.04,1.42-3.35,1.78-3.92,0,.05,0,.11,0,.18,0,.55-.47,1.55-.88,2.43-.08.18-.17.36-.25.53-.44.9-.83,1.63-1.18,2.22h0ZM108.75,49.95c.44-1.1.97-2.15,1.44-2.92-.32.95-.85,2.07-1.44,2.92h0ZM90.42,54.16c.09-2.41,1.22-5.17,2.92-6.11,0,.07.01.15.01.25,0,1.6-1.25,4.42-2.93,5.87h0ZM107.87,53.52c.77-.02,1.49-.31,2.14-.76-.67.66-1.33,1.07-1.93,1.21-.11-.07-.19-.2-.21-.45h0ZM91.69,56.06c1.16,0,2.17-.58,2.97-1.47-.79,1.5-1.68,2.69-2.75,3.39-.85-.51-1.23-1.47-1.38-2.31.29.25.69.39,1.17.39h0ZM129.35,60.99c-.34-.17-.5-.57-.5-.96,0-.65.45-1.01,1.56-1.48-.37.94-.78,1.94-1.07,2.44h0ZM143.17,37.33h0c-.18,0-.36.02-.55.06-.39.09-.79.27-1.22.55l-.32.21-.02.38c-.22,4.49-.74,8.03-1.15,10.88-.16,1.11-.3,2.06-.4,2.92l-.02.17c-.05.37-.1.72-.03,1.01.05.23.16.42.32.56-.07.01-.14.03-.21.04-.63.14-1.16.66-1.48,1.45-.24.59-.33,1.23-.24,1.64.22.97,1.22,1.54,2.06,1.54.13,0,.25-.01.37-.04,1.41-.32,2.25-2.38,2-3.46-.11-.47-.43-.83-.92-1.04h.06s.1-.49.1-.49c.58-2.74,1.35-5.33,2.02-7.61,1.01-3.41,1.74-5.87,1.42-7.32-.21-.92-.88-1.47-1.79-1.47h0Z"/>
  </g>
  <g>
    <path class="st3" d="M178.76.75c-5.39,10.24-15.66,22.02,1.14,9-10.05,8.16-13.44,8.91,1.02,8.92-8.94.51-13.24,1.56-2.35,5.99-8.55-2.84-10.29-.88-5.89,11.18-4-9.42-3.95-20.36-15,1.36,5.24-10.76,10.56-19.26-4.61-10.99,6.92-4.51,18.21-7.13-2.12-10.97,14.79,2.54,12.79.21,6.63-8.55,6.99,9.03,10.37,11.19,8.59-4.56,1.71,9.89-.84,20.96,12.59-1.38Z"/>
    <path class="st2" d="M178.76.75c-3.69,7.01-9.67,14.74-7.68,14.74.92,0,3.52-1.64,8.82-5.74-10.05,8.16-13.44,8.91,1.02,8.92-8.94.51-13.24,1.56-2.35,5.99-2.21-.74-3.97-1.15-5.28-1.15-3.76,0-3.87,3.39-.61,12.33-2.29-5.38-3.25-11.26-5.72-11.26-1.85,0-4.55,3.31-9.28,12.62,3.77-7.74,7.58-14.31,3.77-14.31-1.49,0-4.13,1-8.39,3.32,6.92-4.51,18.21-7.13-2.12-10.97,3.71.64,6.36.97,8.15.97,5.37,0,3.09-2.95-1.52-9.51,3.32,4.3,5.83,7.04,7.36,7.04,1.68,0,2.17-3.33,1.23-11.59.98,5.64.57,11.66,2.52,11.66,1.47,0,4.29-3.43,10.07-13.04M178.76,0c-.25,0-.5.13-.64.36-6.3,10.48-8.6,12.68-9.43,12.68-.63,0-.95-3.6-1.13-5.53-.15-1.7-.33-3.63-.65-5.51-.06-.36-.38-.62-.74-.62-.04,0-.07,0-.11,0-.4.06-.68.42-.64.83.86,7.62.36,9.99-.21,10.62-.1.11-.18.14-.28.14-1.54,0-5.47-5.08-6.76-6.75-.15-.19-.37-.29-.59-.29-.15,0-.31.05-.44.15-.33.24-.4.7-.17,1.04l.49.69c2.27,3.22,4.41,6.26,3.97,7.11-.08.16-.47.53-2.32.53-1.68,0-4.23-.3-8.03-.96-.04,0-.09-.01-.13-.01-.36,0-.67.25-.74.62-.07.41.19.79.6.87,9.64,1.82,10.86,3.18,10.93,3.68.13.83-2.77,2.39-4.89,3.52-1.41.76-2.86,1.54-4.2,2.4-.34.22-.44.67-.23,1.01.14.23.39.37.64.37.12,0,.24-.03.36-.09,3.93-2.14,6.63-3.23,8.03-3.23.57,0,.68.18.71.24.72,1.16-1.66,5.94-3.76,10.16-.46.92-.93,1.87-1.4,2.83-.18.37-.03.82.34,1,.11.05.22.08.33.08.27,0,.54-.15.67-.41,4.12-8.1,7.02-12.21,8.61-12.21,1.2,0,2.24,3.04,3.24,5.98.51,1.5,1.09,3.2,1.79,4.82.12.28.4.46.69.46.09,0,.18-.02.28-.05.38-.15.57-.57.43-.95-1.38-3.77-3.07-8.98-1.9-10.65.2-.29.61-.67,1.8-.67,1.15,0,2.8.36,5.05,1.11.08.03.16.04.24.04.31,0,.59-.19.7-.49.14-.38-.05-.8-.42-.95-5.11-2.08-5.87-3.03-5.98-3.29.29-.34,1.77-.91,8.09-1.27.41-.02.72-.36.71-.77-.01-.41-.34-.73-.75-.73-2.84,0-8.06,0-8.94-.56.29-.65,2.43-2.32,4.5-3.94,1.15-.9,2.45-1.91,3.9-3.09.32-.26.37-.73.11-1.05-.15-.19-.37-.28-.59-.28-.16,0-.32.05-.46.16-4.96,3.84-7.04,5.1-7.9,5.46.43-1.15,2.03-3.73,3.36-5.86,1.48-2.37,3.15-5.05,4.52-7.65.19-.36.06-.8-.3-1-.12-.07-.24-.1-.37-.1h0Z"/>
  </g>
</svg>