<?xml version="1.0" encoding="UTF-8"?>
<svg id="Layer_1" xmlns="http://www.w3.org/2000/svg" version="1.1" viewBox="0 0 69.17 57.42">
  <!-- Generator: Adobe Illustrator 29.3.1, SVG Export Plug-In . SVG Version: 2.1.0 Build 151)  -->
  <defs>
    <style>
      .st0 {
        fill: #f9a7d5;
      }

      .st1 {
        fill: #f56c6c;
      }

      .st2 {
        fill: #fef4e9;
      }
    </style>
  </defs>
  <g>
    <path d="M12.47,49.13l-6.27-19.99c-.62-1.97.12-3.37,2.08-3.99l5-1.57c10.51-3.3,15.94.18,18.55,8.52,2.56,8.17.13,14.24-10.38,17.54l-5,1.57c-1.97.62-3.37-.12-3.99-2.08ZM24.44,34.35c-1.35-4.31-3.38-6.23-8.91-4.49l-1,.31,4.17,13.28,1.07-.33c5.47-1.72,6.05-4.42,4.69-8.77Z"/>
    <path class="st1" d="M20.3,19.35c7.09,0,11.93,3.99,14.4,11.85,4.11,13.11-4.44,18.82-12.34,21.3l-5,1.57c-.74.23-1.47.35-2.17.35-2.63,0-4.72-1.64-5.58-4.4L3.34,30.03c-1.11-3.53.52-6.64,4.05-7.75l5-1.57c2.94-.92,5.53-1.37,7.92-1.37M20.63,39.61c1.62-.75,1.79-1.68.95-4.36-.95-3.02-1.72-3.02-2.53-3.02-.22,0-.46.02-.72.05l2.3,7.34M20.3,16.35c-2.7,0-5.58.49-8.82,1.51l-5,1.57C1.41,21.02-1.12,25.86.47,30.93l6.27,19.99c1.26,4.01,4.49,6.5,8.44,6.5,1,0,2.03-.16,3.06-.49l5-1.57c12.83-4.02,18.04-13.16,14.31-25.06-3.62-11.53-11.38-13.96-17.26-13.96h0Z"/>
    <path class="st2" d="M15.19,54.42c-2.63,0-4.72-1.64-5.58-4.4L3.34,30.03c-1.11-3.53.52-6.64,4.05-7.75l5-1.57c2.94-.92,5.53-1.37,7.92-1.37,7.09,0,11.93,3.99,14.4,11.85,4.11,13.11-4.44,18.82-12.34,21.3l-5,1.57c-.74.23-1.47.35-2.17.35ZM20.63,39.61c1.62-.75,1.79-1.68.95-4.36-.95-3.02-1.72-3.02-2.53-3.02-.22,0-.46.02-.72.05l2.3,7.34Z"/>
    <path class="st0" d="M12.47,49.13l-6.27-19.99c-.62-1.97.12-3.37,2.08-3.99l5-1.57c10.51-3.3,15.94.18,18.55,8.52,2.56,8.17.13,14.24-10.38,17.54l-5,1.57c-1.97.62-3.37-.12-3.99-2.08ZM24.44,34.35c-1.35-4.31-3.38-6.23-8.91-4.49l-1,.31,4.17,13.28,1.07-.33c5.47-1.72,6.05-4.42,4.69-8.77Z"/>
  </g>
  <g>
    <path class="st1" d="M47.38,16.09c2.46,0,5.24,1.28,6.86,4.54,1.86-1.26,3.56-1.52,4.66-1.52,2.25,0,4.33,1.03,5.73,2.83,1.37,1.77,1.87,4.08,1.33,6.19-1.38,5.36-7.89,7.79-13.11,9.74-.5.19-.99.37-1.46.55l-2.01.77-1.37-1.66c-.32-.38-.66-.78-1-1.19-3.6-4.26-8.09-9.57-6.67-14.92.83-3.14,3.73-5.33,7.05-5.33M47.38,13.09c-4.67,0-8.76,3.11-9.95,7.56-1.82,6.86,3.43,13.08,7.27,17.62.34.4.67.8.99,1.17l1.37,1.65c.58.7,1.44,1.09,2.31,1.09.36,0,.72-.07,1.07-.2l2.01-.77c.46-.17.94-.35,1.43-.54,5.58-2.08,13.2-4.94,14.97-11.81.77-3,.08-6.28-1.86-8.78-1.97-2.54-4.92-3.99-8.1-3.99-.95,0-2.22.14-3.65.66-2.01-2.34-4.8-3.67-7.87-3.67h0Z"/>
    <path class="st2" d="M48,37.54c-.32-.38-.66-.78-1-1.19-3.6-4.26-8.09-9.57-6.67-14.92.83-3.14,3.73-5.33,7.05-5.33,2.46,0,5.24,1.28,6.86,4.54,1.86-1.26,3.56-1.52,4.66-1.52,2.25,0,4.33,1.03,5.73,2.83,1.37,1.77,1.87,4.08,1.33,6.19-1.38,5.36-7.89,7.79-13.11,9.74-.5.19-.99.37-1.46.55l-2.01.77-1.37-1.66Z"/>
    <path class="st0" d="M50.3,35.62c4.71-1.81,11.64-3.97,12.74-8.24,1.1-4.27-5.3-9.1-10.45-.51-.29-10.02-8.23-8.94-9.36-4.68s3.85,9.54,7.08,13.42Z"/>
  </g>
  <g>
    <path class="st2" d="M25.34,38.08c-.05,0-.11-.01-.16-.04-.19-.09-.27-.31-.18-.5.45-.97.89-1.93,1.33-2.86,2.23-4.78,4.34-9.29,3.5-10.61-.06-.1-.25-.4-.98-.4-1.46,0-4.14,1.14-8.19,3.47-.06.03-.12.05-.19.05-.12,0-.25-.06-.32-.18-.11-.17-.06-.4.1-.51,1.3-.89,2.73-1.7,4.11-2.49,2.55-1.45,5.18-2.94,4.98-4.03-.23-1.27-4.04-2.52-11.33-3.72-.2-.03-.34-.22-.31-.43.03-.19.19-.32.37-.32.02,0,.04,0,.05,0,3.58.52,6.03.77,7.73.77s2.75-.27,3.01-.79c.54-1.07-1.44-3.73-4.17-7.41l-.5-.68c-.12-.16-.09-.39.07-.52.07-.05.15-.08.23-.08.11,0,.22.05.29.14,2.54,3.13,5.66,6.72,7.2,6.72.23,0,.41-.08.57-.27.89-1.02.9-4.69.04-10.93-.03-.2.11-.39.31-.42.02,0,.04,0,.06,0,.18,0,.33.12.37.3.37,1.86.59,3.77.78,5.46.35,3,.67,5.83,1.63,5.83h0c1.8,0,6.25-7.47,9.45-13.09.07-.12.2-.19.33-.19.06,0,.12.01.18.04.18.1.25.32.16.5-1.3,2.62-2.91,5.34-4.32,7.74-1.61,2.72-3.6,6.11-3.36,6.68.83-.03,3.68-2.01,8.47-5.9.07-.06.15-.08.24-.08.11,0,.21.05.29.13.13.16.11.39-.04.53-1.42,1.21-2.7,2.26-3.82,3.18-2.55,2.09-4.76,3.9-4.56,4.47.23.65,3.95.65,5.17.65s2.57-.02,4.18-.06h0c.2,0,.36.16.37.36.01.2-.14.38-.34.39-5.48.44-8.31,1.04-8.42,1.78-.04.25.31,1.26,6.32,3.54.19.07.29.28.22.47-.05.16-.2.25-.35.25-.04,0-.07,0-.11-.02-2.25-.69-3.85-1.01-5.04-1.01-1.1,0-1.83.28-2.23.87-.96,1.41-.31,4.79,2.11,10.96.07.19-.02.4-.2.48-.05.02-.1.03-.15.03-.14,0-.28-.08-.34-.22-.73-1.6-1.35-3.28-1.89-4.76-1.22-3.3-2.27-6.14-3.72-6.14-1.79,0-4.55,4.01-8.67,12.63-.06.13-.2.21-.34.21Z"/>
    <path class="st1" d="M45.53.75c-3.51,7.08-9.28,14.92-7.34,14.92.9,0,3.47-1.7,8.7-5.95-8.75,7.47-12.39,8.96-2.96,8.96,1.19,0,2.58-.02,4.19-.06-8.93.72-13.2,1.88-2.2,6.05-2.14-.66-3.86-1.02-5.15-1.02-3.91,0-3.99,3.36-.47,12.34-2.4-5.3-3.51-11.12-5.95-11.12-1.85,0-4.47,3.35-9.01,12.84,3.56-7.78,7.18-14.4,3.5-14.4-1.47,0-4.11,1.06-8.38,3.52,6.81-4.68,18.03-7.57-2.38-10.92,3.46.51,6,.77,7.78.77,5.87,0,3.53-2.88-1.36-9.48,3.4,4.19,5.97,6.86,7.49,6.86,1.71,0,2.12-3.34.98-11.62,1.11,5.59.85,11.59,2.78,11.59,1.47,0,4.2-3.48,9.77-13.28M45.53,0c-.26,0-.51.14-.65.38-6.06,10.66-8.31,12.9-9.12,12.9-.62,0-1.04-3.58-1.26-5.5-.2-1.7-.42-3.62-.79-5.49-.07-.36-.38-.6-.73-.6-.04,0-.08,0-.12.01-.4.07-.67.44-.62.84,1.05,7.63.6,9.99.05,10.63-.1.11-.18.14-.29.14-1.56,0-5.59-4.95-6.91-6.58-.15-.18-.36-.28-.58-.28-.16,0-.32.05-.46.16-.32.25-.39.71-.14,1.04l.5.68c2.35,3.17,4.57,6.16,4.14,7.02-.09.17-.53.58-2.68.58-1.68,0-4.12-.24-7.67-.76-.04,0-.07,0-.11,0-.36,0-.68.27-.74.64-.06.41.21.79.62.86,9.68,1.59,10.93,2.92,11.02,3.41.15.83-2.71,2.45-4.8,3.64-1.39.79-2.83,1.61-4.14,2.51-.33.23-.42.68-.21,1.02.14.23.39.35.64.35.13,0,.26-.03.37-.1,3.94-2.27,6.63-3.42,8.01-3.42.52,0,.63.17.66.23.73,1.15-1.53,5.98-3.52,10.25-.43.93-.88,1.89-1.33,2.86-.17.37,0,.82.36.99.1.05.21.07.32.07.28,0,.55-.16.68-.43,3.94-8.24,6.74-12.41,8.33-12.41,1.19,0,2.29,3,3.37,5.9.55,1.49,1.17,3.17,1.9,4.78.13.28.4.44.68.44.1,0,.2-.02.29-.06.37-.16.55-.59.41-.96-1.47-3.75-3.3-8.93-2.15-10.61.21-.3.63-.7,1.92-.7,1.14,0,2.75.32,4.93.99.07.02.15.03.22.03.31,0,.6-.2.71-.51.13-.38-.07-.8-.44-.94-5.16-1.96-5.94-2.89-6.06-3.14.28-.34,1.75-.95,8.06-1.46.4-.03.71-.38.69-.79-.02-.4-.35-.71-.75-.71,0,0-.01,0-.02,0-1.77.04-3.1.06-4.17.06-3.3,0-4.44-.21-4.78-.41.27-.66,2.37-2.38,4.4-4.05,1.13-.92,2.4-1.97,3.82-3.18.31-.27.35-.74.09-1.05-.15-.18-.36-.27-.58-.27-.17,0-.33.06-.47.17-4.93,4.02-6.95,5.28-7.77,5.64.4-1.17,1.94-3.78,3.22-5.94,1.42-2.4,3.03-5.13,4.33-7.76.18-.36.04-.8-.32-1-.11-.06-.23-.09-.35-.09h0Z"/>
  </g>
</svg>